solid box-steuerung-deckel
  facet normal 0.00000000 0.70710678 -0.70710678
    outer loop
      vertex -86.40000000 91.21351598 30.00000000
      vertex -95.90000000 91.21351598 30.00000000
      vertex -86.90000000 91.71351598 30.50000000
    endloop
  endfacet 0
  facet normal 0.00000000 0.70710678 -0.70710678
    outer loop
      vertex -86.90000000 91.71351598 30.50000000
      vertex -95.90000000 91.21351598 30.00000000
      vertex -95.40000000 91.71351598 30.50000000
    endloop
  endfacet 0
  facet normal 0.00000000 -0.70710678 -0.70710678
    outer loop
      vertex -95.90000000 96.21351598 30.00000000
      vertex -86.40000000 96.21351598 30.00000000
      vertex -95.40000000 95.71351598 30.50000000
    endloop
  endfacet 1
  facet normal 0.00000000 -0.70710678 -0.70710678
    outer loop
      vertex -95.40000000 95.71351598 30.50000000
      vertex -86.40000000 96.21351598 30.00000000
      vertex -86.90000000 95.71351598 30.50000000
    endloop
  endfacet 1
  facet normal 0.70710678 0.00000000 -0.70710678
    outer loop
      vertex -95.90000000 96.21351598 30.00000000
      vertex -95.40000000 95.71351598 30.50000000
      vertex -95.90000000 91.21351598 30.00000000
    endloop
  endfacet 2
  facet normal 0.70710678 0.00000000 -0.70710678
    outer loop
      vertex -95.90000000 91.21351598 30.00000000
      vertex -95.40000000 95.71351598 30.50000000
      vertex -95.40000000 91.71351598 30.50000000
    endloop
  endfacet 2
  facet normal -0.70710678 -0.00000000 -0.70710678
    outer loop
      vertex -86.40000000 96.21351598 30.00000000
      vertex -86.40000000 91.21351598 30.00000000
      vertex -86.90000000 95.71351598 30.50000000
    endloop
  endfacet 3
  facet normal -0.70710678 -0.00000000 -0.70710678
    outer loop
      vertex -86.90000000 95.71351598 30.50000000
      vertex -86.40000000 91.21351598 30.00000000
      vertex -86.90000000 91.71351598 30.50000000
    endloop
  endfacet 3
  facet normal 0.00000000 -0.70710678 0.70710678
    outer loop
      vertex -86.40000000 96.21351598 32.00000000
      vertex -95.90000000 96.21351598 32.00000000
      vertex -86.90000000 95.71351598 31.50000000
    endloop
  endfacet 4
  facet normal 0.00000000 -0.70710678 0.70710678
    outer loop
      vertex -86.90000000 95.71351598 31.50000000
      vertex -95.90000000 96.21351598 32.00000000
      vertex -95.40000000 95.71351598 31.50000000
    endloop
  endfacet 4
  facet normal 0.70710678 0.00000000 0.70710678
    outer loop
      vertex -95.90000000 96.21351598 32.00000000
      vertex -95.90000000 91.21351598 32.00000000
      vertex -95.40000000 95.71351598 31.50000000
    endloop
  endfacet 5
  facet normal 0.70710678 0.00000000 0.70710678
    outer loop
      vertex -95.40000000 95.71351598 31.50000000
      vertex -95.90000000 91.21351598 32.00000000
      vertex -95.40000000 91.71351598 31.50000000
    endloop
  endfacet 5
  facet normal -0.70710678 0.00000000 0.70710678
    outer loop
      vertex -86.40000000 96.21351598 32.00000000
      vertex -86.90000000 95.71351598 31.50000000
      vertex -86.40000000 91.21351598 32.00000000
    endloop
  endfacet 6
  facet normal -0.70710678 0.00000000 0.70710678
    outer loop
      vertex -86.40000000 91.21351598 32.00000000
      vertex -86.90000000 95.71351598 31.50000000
      vertex -86.90000000 91.71351598 31.50000000
    endloop
  endfacet 6
  facet normal -0.00000000 0.70710678 0.70710678
    outer loop
      vertex -95.90000000 91.21351598 32.00000000
      vertex -86.40000000 91.21351598 32.00000000
      vertex -95.40000000 91.71351598 31.50000000
    endloop
  endfacet 7
  facet normal -0.00000000 0.70710678 0.70710678
    outer loop
      vertex -95.40000000 91.71351598 31.50000000
      vertex -86.40000000 91.21351598 32.00000000
      vertex -86.90000000 91.71351598 31.50000000
    endloop
  endfacet 7
  facet normal 1.00000000 0.00000000 0.00000000
    outer loop
      vertex -95.40000000 91.71351598 30.50000000
      vertex -95.40000000 95.71351598 30.50000000
      vertex -95.40000000 91.71351598 31.50000000
    endloop
  endfacet 8
  facet normal 1.00000000 -0.00000000 0.00000000
    outer loop
      vertex -95.40000000 91.71351598 31.50000000
      vertex -95.40000000 95.71351598 30.50000000
      vertex -95.40000000 95.71351598 31.50000000
    endloop
  endfacet 8
  facet normal 0.00000000 -1.00000000 0.00000000
    outer loop
      vertex -95.40000000 95.71351598 30.50000000
      vertex -86.90000000 95.71351598 30.50000000
      vertex -95.40000000 95.71351598 31.50000000
    endloop
  endfacet 9
  facet normal 0.00000000 -1.00000000 0.00000000
    outer loop
      vertex -95.40000000 95.71351598 31.50000000
      vertex -86.90000000 95.71351598 30.50000000
      vertex -86.90000000 95.71351598 31.50000000
    endloop
  endfacet 9
  facet normal 0.00000000 -0.00000000 -1.00000000
    outer loop
      vertex -96.17614808 100.19468931 30.00000000
      vertex -95.50000000 100.71351598 30.00000000
      vertex -96.20000000 100.01351598 30.00000000
    endloop
  endfacet 10
  facet normal 0.00000000 0.00000000 -1.00000000
    outer loop
      vertex -96.17614808 100.19468931 30.00000000
      vertex -96.10621778 100.36351598 30.00000000
      vertex -95.50000000 100.71351598 30.00000000
    endloop
  endfacet 10
  facet normal 0.00000000 0.00000000 -1.00000000
    outer loop
      vertex -95.50000000 100.71351598 30.00000000
      vertex -96.10621778 100.36351598 30.00000000
      vertex -95.99497475 100.50849073 30.00000000
    endloop
  endfacet 10
  facet normal 0.00000000 -0.00000000 -1.00000000
    outer loop
      vertex -95.85000000 100.61973376 30.00000000
      vertex -95.50000000 100.71351598 30.00000000
      vertex -95.99497475 100.50849073 30.00000000
    endloop
  endfacet 10
  facet normal 0.00000000 0.00000000 -1.00000000
    outer loop
      vertex -95.85000000 100.61973376 30.00000000
      vertex -95.68117333 100.68966406 30.00000000
      vertex -95.50000000 100.71351598 30.00000000
    endloop
  endfacet 10
  facet normal 0.00000000 0.00000000 -1.00000000
    outer loop
      vertex -95.68117333 89.33736790 30.00000000
      vertex -96.20000000 90.01351598 30.00000000
      vertex -95.50000000 89.31351598 30.00000000
    endloop
  endfacet 10
  facet normal 0.00000000 0.00000000 -1.00000000
    outer loop
      vertex -95.68117333 89.33736790 30.00000000
      vertex -95.85000000 89.40729820 30.00000000
      vertex -96.20000000 90.01351598 30.00000000
    endloop
  endfacet 10
  facet normal 0.00000000 0.00000000 -1.00000000
    outer loop
      vertex -96.20000000 90.01351598 30.00000000
      vertex -95.85000000 89.40729820 30.00000000
      vertex -95.99497475 89.51854124 30.00000000
    endloop
  endfacet 10
  facet normal 0.00000000 0.00000000 -1.00000000
    outer loop
      vertex -96.10621778 89.66351598 30.00000000
      vertex -96.20000000 90.01351598 30.00000000
      vertex -95.99497475 89.51854124 30.00000000
    endloop
  endfacet 10
  facet normal 0.00000000 0.00000000 -1.00000000
    outer loop
      vertex -96.10621778 89.66351598 30.00000000
      vertex -96.17614808 89.83234265 30.00000000
      vertex -96.20000000 90.01351598 30.00000000
    endloop
  endfacet 10
  facet normal 0.00000000 0.00000000 -1.00000000
    outer loop
      vertex -96.20000000 100.01351598 30.00000000
      vertex -95.90000000 96.21351598 30.00000000
      vertex -96.20000000 90.01351598 30.00000000
    endloop
  endfacet 10
  facet normal 0.00000000 0.00000000 -1.00000000
    outer loop
      vertex -96.20000000 100.01351598 30.00000000
      vertex -95.50000000 100.71351598 30.00000000
      vertex -95.90000000 96.21351598 30.00000000
    endloop
  endfacet 10
  facet normal 0.00000000 0.00000000 -1.00000000
    outer loop
      vertex -95.90000000 96.21351598 30.00000000
      vertex -95.50000000 100.71351598 30.00000000
      vertex -86.40000000 96.21351598 30.00000000
    endloop
  endfacet 10
  facet normal 0.00000000 0.00000000 -1.00000000
    outer loop
      vertex -86.40000000 96.21351598 30.00000000
      vertex -95.50000000 100.71351598 30.00000000
      vertex -64.50000000 100.71351598 30.00000000
    endloop
  endfacet 10
  facet normal 0.00000000 0.00000000 -1.00000000
    outer loop
      vertex -64.50000000 89.31351598 30.00000000
      vertex -64.50000000 100.71351598 30.00000000
      vertex -63.80000000 100.01351598 30.00000000
    endloop
  endfacet 10
  facet normal -0.00000000 0.00000000 -1.00000000
    outer loop
      vertex -63.80000000 90.01351598 30.00000000
      vertex -64.50000000 89.31351598 30.00000000
      vertex -63.80000000 100.01351598 30.00000000
    endloop
  endfacet 10
  facet normal 0.00000000 0.00000000 -1.00000000
    outer loop
      vertex -63.80000000 90.01351598 30.00000000
      vertex -64.31882667 89.33736790 30.00000000
      vertex -64.50000000 89.31351598 30.00000000
    endloop
  endfacet 10
  facet normal 0.00000000 0.00000000 -1.00000000
    outer loop
      vertex -63.80000000 90.01351598 30.00000000
      vertex -64.15000000 89.40729820 30.00000000
      vertex -64.31882667 89.33736790 30.00000000
    endloop
  endfacet 10
  facet normal 0.00000000 0.00000000 -1.00000000
    outer loop
      vertex -63.80000000 90.01351598 30.00000000
      vertex -64.00502525 89.51854124 30.00000000
      vertex -64.15000000 89.40729820 30.00000000
    endloop
  endfacet 10
  facet normal 0.00000000 0.00000000 -1.00000000
    outer loop
      vertex -63.80000000 90.01351598 30.00000000
      vertex -63.89378222 89.66351598 30.00000000
      vertex -64.00502525 89.51854124 30.00000000
    endloop
  endfacet 10
  facet normal 0.00000000 0.00000000 -1.00000000
    outer loop
      vertex -63.80000000 90.01351598 30.00000000
      vertex -63.82385192 89.83234265 30.00000000
      vertex -63.89378222 89.66351598 30.00000000
    endloop
  endfacet 10
  facet normal -0.00000000 -0.00000000 -1.00000000
    outer loop
      vertex -64.31882667 100.68966406 30.00000000
      vertex -64.15000000 100.61973376 30.00000000
      vertex -64.50000000 100.71351598 30.00000000
    endloop
  endfacet 10
  facet normal 0.00000000 0.00000000 -1.00000000
    outer loop
      vertex -64.50000000 100.71351598 30.00000000
      vertex -64.15000000 100.61973376 30.00000000
      vertex -64.00502525 100.50849073 30.00000000
    endloop
  endfacet 10
  facet normal 0.00000000 0.00000000 -1.00000000
    outer loop
      vertex -63.89378222 100.36351598 30.00000000
      vertex -64.50000000 100.71351598 30.00000000
      vertex -64.00502525 100.50849073 30.00000000
    endloop
  endfacet 10
  facet normal -0.00000000 -0.00000000 -1.00000000
    outer loop
      vertex -63.89378222 100.36351598 30.00000000
      vertex -63.82385192 100.19468931 30.00000000
      vertex -64.50000000 100.71351598 30.00000000
    endloop
  endfacet 10
  facet normal 0.00000000 0.00000000 -1.00000000
    outer loop
      vertex -64.50000000 100.71351598 30.00000000
      vertex -63.82385192 100.19468931 30.00000000
      vertex -63.80000000 100.01351598 30.00000000
    endloop
  endfacet 10
  facet normal 0.00000000 -0.00000000 -1.00000000
    outer loop
      vertex -95.90000000 96.21351598 30.00000000
      vertex -95.90000000 91.21351598 30.00000000
      vertex -96.20000000 90.01351598 30.00000000
    endloop
  endfacet 10
  facet normal 0.00000000 0.00000000 -1.00000000
    outer loop
      vertex -96.20000000 90.01351598 30.00000000
      vertex -95.90000000 91.21351598 30.00000000
      vertex -95.50000000 89.31351598 30.00000000
    endloop
  endfacet 10
  facet normal 0.00000000 0.00000000 -1.00000000
    outer loop
      vertex -95.50000000 89.31351598 30.00000000
      vertex -95.90000000 91.21351598 30.00000000
      vertex -86.40000000 91.21351598 30.00000000
    endloop
  endfacet 10
  facet normal 0.00000000 0.00000000 -1.00000000
    outer loop
      vertex -64.50000000 89.31351598 30.00000000
      vertex -86.40000000 91.21351598 30.00000000
      vertex -86.40000000 96.21351598 30.00000000
    endloop
  endfacet 10
  facet normal 0.00000000 -0.00000000 -1.00000000
    outer loop
      vertex -64.50000000 100.71351598 30.00000000
      vertex -64.50000000 89.31351598 30.00000000
      vertex -86.40000000 96.21351598 30.00000000
    endloop
  endfacet 10
  facet normal 0.00000000 -0.00000000 -1.00000000
    outer loop
      vertex -86.40000000 91.21351598 30.00000000
      vertex -64.50000000 89.31351598 30.00000000
      vertex -95.50000000 89.31351598 30.00000000
    endloop
  endfacet 10
  facet normal -0.00000000 -0.00000000 1.00000000
    outer loop
      vertex -96.17614808 89.83234265 32.00000000
      vertex -95.50000000 89.31351598 32.00000000
      vertex -96.20000000 90.01351598 32.00000000
    endloop
  endfacet 11
  facet normal 0.00000000 0.00000000 1.00000000
    outer loop
      vertex -96.17614808 89.83234265 32.00000000
      vertex -96.10621778 89.66351598 32.00000000
      vertex -95.50000000 89.31351598 32.00000000
    endloop
  endfacet 11
  facet normal 0.00000000 0.00000000 1.00000000
    outer loop
      vertex -95.50000000 89.31351598 32.00000000
      vertex -96.10621778 89.66351598 32.00000000
      vertex -95.99497475 89.51854124 32.00000000
    endloop
  endfacet 11
  facet normal -0.00000000 -0.00000000 1.00000000
    outer loop
      vertex -95.85000000 89.40729820 32.00000000
      vertex -95.50000000 89.31351598 32.00000000
      vertex -95.99497475 89.51854124 32.00000000
    endloop
  endfacet 11
  facet normal 0.00000000 0.00000000 1.00000000
    outer loop
      vertex -95.85000000 89.40729820 32.00000000
      vertex -95.68117333 89.33736790 32.00000000
      vertex -95.50000000 89.31351598 32.00000000
    endloop
  endfacet 11
  facet normal 0.00000000 0.00000000 1.00000000
    outer loop
      vertex -64.50000000 100.71351598 32.00000000
      vertex -86.40000000 96.21351598 32.00000000
      vertex -64.50000000 89.31351598 32.00000000
    endloop
  endfacet 11
  facet normal 0.00000000 0.00000000 1.00000000
    outer loop
      vertex -63.80000000 90.01351598 32.00000000
      vertex -64.50000000 89.31351598 32.00000000
      vertex -63.82385192 89.83234265 32.00000000
    endloop
  endfacet 11
  facet normal 0.00000000 0.00000000 1.00000000
    outer loop
      vertex -63.80000000 90.01351598 32.00000000
      vertex -64.50000000 100.71351598 32.00000000
      vertex -64.50000000 89.31351598 32.00000000
    endloop
  endfacet 11
  facet normal 0.00000000 -0.00000000 1.00000000
    outer loop
      vertex -63.80000000 90.01351598 32.00000000
      vertex -63.80000000 100.01351598 32.00000000
      vertex -64.50000000 100.71351598 32.00000000
    endloop
  endfacet 11
  facet normal 0.00000000 0.00000000 1.00000000
    outer loop
      vertex -64.50000000 100.71351598 32.00000000
      vertex -63.80000000 100.01351598 32.00000000
      vertex -63.82385192 100.19468931 32.00000000
    endloop
  endfacet 11
  facet normal 0.00000000 0.00000000 1.00000000
    outer loop
      vertex -63.89378222 100.36351598 32.00000000
      vertex -64.50000000 100.71351598 32.00000000
      vertex -63.82385192 100.19468931 32.00000000
    endloop
  endfacet 11
  facet normal 0.00000000 0.00000000 1.00000000
    outer loop
      vertex -63.89378222 100.36351598 32.00000000
      vertex -64.00502525 100.50849073 32.00000000
      vertex -64.50000000 100.71351598 32.00000000
    endloop
  endfacet 11
  facet normal 0.00000000 0.00000000 1.00000000
    outer loop
      vertex -64.50000000 100.71351598 32.00000000
      vertex -64.00502525 100.50849073 32.00000000
      vertex -64.15000000 100.61973376 32.00000000
    endloop
  endfacet 11
  facet normal 0.00000000 0.00000000 1.00000000
    outer loop
      vertex -64.31882667 100.68966406 32.00000000
      vertex -64.50000000 100.71351598 32.00000000
      vertex -64.15000000 100.61973376 32.00000000
    endloop
  endfacet 11
  facet normal 0.00000000 -0.00000000 1.00000000
    outer loop
      vertex -64.31882667 89.33736790 32.00000000
      vertex -64.15000000 89.40729820 32.00000000
      vertex -64.50000000 89.31351598 32.00000000
    endloop
  endfacet 11
  facet normal 0.00000000 0.00000000 1.00000000
    outer loop
      vertex -64.50000000 89.31351598 32.00000000
      vertex -64.15000000 89.40729820 32.00000000
      vertex -64.00502525 89.51854124 32.00000000
    endloop
  endfacet 11
  facet normal 0.00000000 0.00000000 1.00000000
    outer loop
      vertex -63.89378222 89.66351598 32.00000000
      vertex -64.50000000 89.31351598 32.00000000
      vertex -64.00502525 89.51854124 32.00000000
    endloop
  endfacet 11
  facet normal 0.00000000 -0.00000000 1.00000000
    outer loop
      vertex -63.89378222 89.66351598 32.00000000
      vertex -63.82385192 89.83234265 32.00000000
      vertex -64.50000000 89.31351598 32.00000000
    endloop
  endfacet 11
  facet normal 0.00000000 0.00000000 1.00000000
    outer loop
      vertex -64.50000000 100.71351598 32.00000000
      vertex -95.50000000 100.71351598 32.00000000
      vertex -86.40000000 96.21351598 32.00000000
    endloop
  endfacet 11
  facet normal 0.00000000 0.00000000 1.00000000
    outer loop
      vertex -86.40000000 96.21351598 32.00000000
      vertex -95.50000000 100.71351598 32.00000000
      vertex -95.90000000 96.21351598 32.00000000
    endloop
  endfacet 11
  facet normal 0.00000000 -0.00000000 1.00000000
    outer loop
      vertex -95.90000000 96.21351598 32.00000000
      vertex -95.50000000 100.71351598 32.00000000
      vertex -96.20000000 100.01351598 32.00000000
    endloop
  endfacet 11
  facet normal 0.00000000 0.00000000 1.00000000
    outer loop
      vertex -96.20000000 90.01351598 32.00000000
      vertex -95.90000000 96.21351598 32.00000000
      vertex -96.20000000 100.01351598 32.00000000
    endloop
  endfacet 11
  facet normal 0.00000000 0.00000000 1.00000000
    outer loop
      vertex -96.20000000 90.01351598 32.00000000
      vertex -95.90000000 91.21351598 32.00000000
      vertex -95.90000000 96.21351598 32.00000000
    endloop
  endfacet 11
  facet normal -0.00000000 0.00000000 1.00000000
    outer loop
      vertex -96.20000000 90.01351598 32.00000000
      vertex -95.50000000 89.31351598 32.00000000
      vertex -95.90000000 91.21351598 32.00000000
    endloop
  endfacet 11
  facet normal -0.00000000 0.00000000 1.00000000
    outer loop
      vertex -95.90000000 91.21351598 32.00000000
      vertex -95.50000000 89.31351598 32.00000000
      vertex -86.40000000 91.21351598 32.00000000
    endloop
  endfacet 11
  facet normal 0.00000000 0.00000000 1.00000000
    outer loop
      vertex -86.40000000 91.21351598 32.00000000
      vertex -95.50000000 89.31351598 32.00000000
      vertex -64.50000000 89.31351598 32.00000000
    endloop
  endfacet 11
  facet normal 0.00000000 0.00000000 1.00000000
    outer loop
      vertex -86.40000000 96.21351598 32.00000000
      vertex -86.40000000 91.21351598 32.00000000
      vertex -64.50000000 89.31351598 32.00000000
    endloop
  endfacet 11
  facet normal -0.00000000 0.00000000 1.00000000
    outer loop
      vertex -95.68117333 100.68966406 32.00000000
      vertex -95.85000000 100.61973376 32.00000000
      vertex -95.50000000 100.71351598 32.00000000
    endloop
  endfacet 11
  facet normal 0.00000000 0.00000000 1.00000000
    outer loop
      vertex -95.50000000 100.71351598 32.00000000
      vertex -95.85000000 100.61973376 32.00000000
      vertex -95.99497475 100.50849073 32.00000000
    endloop
  endfacet 11
  facet normal 0.00000000 0.00000000 1.00000000
    outer loop
      vertex -96.10621778 100.36351598 32.00000000
      vertex -95.50000000 100.71351598 32.00000000
      vertex -95.99497475 100.50849073 32.00000000
    endloop
  endfacet 11
  facet normal -0.00000000 0.00000000 1.00000000
    outer loop
      vertex -96.10621778 100.36351598 32.00000000
      vertex -96.17614808 100.19468931 32.00000000
      vertex -95.50000000 100.71351598 32.00000000
    endloop
  endfacet 11
  facet normal 0.00000000 0.00000000 1.00000000
    outer loop
      vertex -95.50000000 100.71351598 32.00000000
      vertex -96.17614808 100.19468931 32.00000000
      vertex -96.20000000 100.01351598 32.00000000
    endloop
  endfacet 11
  facet normal 0.00000000 -0.13052619 -0.99144486
    outer loop
      vertex -94.50000000 89.31351598 30.40000000
      vertex -65.50000000 89.31351598 30.40000000
      vertex -94.50000000 89.15822456 30.42044450
    endloop
  endfacet 12
  facet normal 0.00000000 -0.13052619 -0.99144486
    outer loop
      vertex -94.50000000 89.15822456 30.42044450
      vertex -65.50000000 89.31351598 30.40000000
      vertex -65.50000000 89.15822456 30.42044450
    endloop
  endfacet 12
  facet normal 0.00000000 -0.38268343 -0.92387953
    outer loop
      vertex -94.50000000 89.01351598 30.48038476
      vertex -65.50000000 89.15822456 30.42044450
      vertex -65.50000000 89.01351598 30.48038476
    endloop
  endfacet 12
  facet normal 0.00000000 -0.60876143 -0.79335334
    outer loop
      vertex -94.50000000 88.88925191 30.57573593
      vertex -65.50000000 89.01351598 30.48038476
      vertex -65.50000000 88.88925191 30.57573593
    endloop
  endfacet 12
  facet normal 0.00000000 -0.79335334 -0.60876143
    outer loop
      vertex -94.50000000 88.79390074 30.70000000
      vertex -65.50000000 88.88925191 30.57573593
      vertex -65.50000000 88.79390074 30.70000000
    endloop
  endfacet 12
  facet normal 0.00000000 -0.92387953 -0.38268343
    outer loop
      vertex -94.50000000 88.73396049 30.84470857
      vertex -65.50000000 88.79390074 30.70000000
      vertex -65.50000000 88.73396049 30.84470857
    endloop
  endfacet 12
  facet normal 0.00000000 -0.99144486 -0.13052619
    outer loop
      vertex -94.50000000 88.71351598 31.00000000
      vertex -65.50000000 88.73396049 30.84470857
      vertex -65.50000000 88.71351598 31.00000000
    endloop
  endfacet 12
  facet normal 0.00000000 -0.99144486 0.13052619
    outer loop
      vertex -94.50000000 88.73396049 31.15529143
      vertex -65.50000000 88.71351598 31.00000000
      vertex -65.50000000 88.73396049 31.15529143
    endloop
  endfacet 12
  facet normal 0.00000000 -0.92387953 0.38268343
    outer loop
      vertex -94.50000000 88.79390074 31.30000000
      vertex -65.50000000 88.73396049 31.15529143
      vertex -65.50000000 88.79390074 31.30000000
    endloop
  endfacet 12
  facet normal 0.00000000 -0.79335334 0.60876143
    outer loop
      vertex -94.50000000 88.88925191 31.42426407
      vertex -65.50000000 88.79390074 31.30000000
      vertex -65.50000000 88.88925191 31.42426407
    endloop
  endfacet 12
  facet normal 0.00000000 -0.60876143 0.79335334
    outer loop
      vertex -94.50000000 89.01351598 31.51961524
      vertex -65.50000000 88.88925191 31.42426407
      vertex -65.50000000 89.01351598 31.51961524
    endloop
  endfacet 12
  facet normal 0.00000000 -0.38268343 0.92387953
    outer loop
      vertex -94.50000000 89.15822456 31.57955550
      vertex -65.50000000 89.01351598 31.51961524
      vertex -65.50000000 89.15822456 31.57955550
    endloop
  endfacet 12
  facet normal 0.00000000 -0.13052619 0.99144486
    outer loop
      vertex -94.50000000 89.31351598 31.60000000
      vertex -65.50000000 89.15822456 31.57955550
      vertex -65.50000000 89.31351598 31.60000000
    endloop
  endfacet 12
  facet normal 0.00000000 -0.13052619 0.99144486
    outer loop
      vertex -94.50000000 89.31351598 31.60000000
      vertex -94.50000000 89.15822456 31.57955550
      vertex -65.50000000 89.15822456 31.57955550
    endloop
  endfacet 12
  facet normal 0.00000000 -0.38268343 0.92387953
    outer loop
      vertex -94.50000000 89.15822456 31.57955550
      vertex -94.50000000 89.01351598 31.51961524
      vertex -65.50000000 89.01351598 31.51961524
    endloop
  endfacet 12
  facet normal 0.00000000 -0.60876143 0.79335334
    outer loop
      vertex -94.50000000 89.01351598 31.51961524
      vertex -94.50000000 88.88925191 31.42426407
      vertex -65.50000000 88.88925191 31.42426407
    endloop
  endfacet 12
  facet normal 0.00000000 -0.79335334 0.60876143
    outer loop
      vertex -94.50000000 88.88925191 31.42426407
      vertex -94.50000000 88.79390074 31.30000000
      vertex -65.50000000 88.79390074 31.30000000
    endloop
  endfacet 12
  facet normal 0.00000000 -0.92387953 0.38268343
    outer loop
      vertex -94.50000000 88.79390074 31.30000000
      vertex -94.50000000 88.73396049 31.15529143
      vertex -65.50000000 88.73396049 31.15529143
    endloop
  endfacet 12
  facet normal 0.00000000 -0.99144486 0.13052619
    outer loop
      vertex -94.50000000 88.73396049 31.15529143
      vertex -94.50000000 88.71351598 31.00000000
      vertex -65.50000000 88.71351598 31.00000000
    endloop
  endfacet 12
  facet normal 0.00000000 -0.99144486 -0.13052619
    outer loop
      vertex -94.50000000 88.71351598 31.00000000
      vertex -94.50000000 88.73396049 30.84470857
      vertex -65.50000000 88.73396049 30.84470857
    endloop
  endfacet 12
  facet normal 0.00000000 -0.92387953 -0.38268343
    outer loop
      vertex -94.50000000 88.73396049 30.84470857
      vertex -94.50000000 88.79390074 30.70000000
      vertex -65.50000000 88.79390074 30.70000000
    endloop
  endfacet 12
  facet normal 0.00000000 -0.79335334 -0.60876143
    outer loop
      vertex -94.50000000 88.79390074 30.70000000
      vertex -94.50000000 88.88925191 30.57573593
      vertex -65.50000000 88.88925191 30.57573593
    endloop
  endfacet 12
  facet normal 0.00000000 -0.60876143 -0.79335334
    outer loop
      vertex -94.50000000 88.88925191 30.57573593
      vertex -94.50000000 89.01351598 30.48038476
      vertex -65.50000000 89.01351598 30.48038476
    endloop
  endfacet 12
  facet normal 0.00000000 -0.38268343 -0.92387953
    outer loop
      vertex -94.50000000 89.01351598 30.48038476
      vertex -94.50000000 89.15822456 30.42044450
      vertex -65.50000000 89.15822456 30.42044450
    endloop
  endfacet 12
  facet normal 1.00000000 0.00000000 0.00000000
    outer loop
      vertex -65.50000000 89.31351598 31.60000000
      vertex -65.50000000 89.15822456 31.57955550
      vertex -65.50000000 89.31351598 30.40000000
    endloop
  endfacet 13
  facet normal 1.00000000 0.00000000 0.00000000
    outer loop
      vertex -65.50000000 89.31351598 30.40000000
      vertex -65.50000000 89.15822456 31.57955550
      vertex -65.50000000 89.01351598 31.51961524
    endloop
  endfacet 13
  facet normal 1.00000000 -0.00000000 0.00000000
    outer loop
      vertex -65.50000000 88.88925191 31.42426407
      vertex -65.50000000 89.31351598 30.40000000
      vertex -65.50000000 89.01351598 31.51961524
    endloop
  endfacet 13
  facet normal 1.00000000 0.00000000 0.00000000
    outer loop
      vertex -65.50000000 88.88925191 31.42426407
      vertex -65.50000000 88.79390074 31.30000000
      vertex -65.50000000 89.31351598 30.40000000
    endloop
  endfacet 13
  facet normal 1.00000000 0.00000000 0.00000000
    outer loop
      vertex -65.50000000 89.31351598 30.40000000
      vertex -65.50000000 88.79390074 31.30000000
      vertex -65.50000000 88.73396049 31.15529143
    endloop
  endfacet 13
  facet normal 1.00000000 -0.00000000 0.00000000
    outer loop
      vertex -65.50000000 88.71351598 31.00000000
      vertex -65.50000000 89.31351598 30.40000000
      vertex -65.50000000 88.73396049 31.15529143
    endloop
  endfacet 13
  facet normal 1.00000000 0.00000000 0.00000000
    outer loop
      vertex -65.50000000 88.71351598 31.00000000
      vertex -65.50000000 88.73396049 30.84470857
      vertex -65.50000000 89.31351598 30.40000000
    endloop
  endfacet 13
  facet normal 1.00000000 0.00000000 0.00000000
    outer loop
      vertex -65.50000000 89.31351598 30.40000000
      vertex -65.50000000 88.73396049 30.84470857
      vertex -65.50000000 88.79390074 30.70000000
    endloop
  endfacet 13
  facet normal 1.00000000 -0.00000000 -0.00000000
    outer loop
      vertex -65.50000000 88.88925191 30.57573593
      vertex -65.50000000 89.31351598 30.40000000
      vertex -65.50000000 88.79390074 30.70000000
    endloop
  endfacet 13
  facet normal 1.00000000 0.00000000 0.00000000
    outer loop
      vertex -65.50000000 88.88925191 30.57573593
      vertex -65.50000000 89.01351598 30.48038476
      vertex -65.50000000 89.31351598 30.40000000
    endloop
  endfacet 13
  facet normal 1.00000000 0.00000000 0.00000000
    outer loop
      vertex -65.50000000 89.31351598 30.40000000
      vertex -65.50000000 89.01351598 30.48038476
      vertex -65.50000000 89.15822456 30.42044450
    endloop
  endfacet 13
  facet normal -1.00000000 0.00000000 0.00000000
    outer loop
      vertex -94.50000000 89.15822456 30.42044450
      vertex -94.50000000 89.01351598 30.48038476
      vertex -94.50000000 89.31351598 30.40000000
    endloop
  endfacet 14
  facet normal -1.00000000 0.00000000 0.00000000
    outer loop
      vertex -94.50000000 89.31351598 30.40000000
      vertex -94.50000000 89.01351598 30.48038476
      vertex -94.50000000 88.88925191 30.57573593
    endloop
  endfacet 14
  facet normal -1.00000000 0.00000000 0.00000000
    outer loop
      vertex -94.50000000 88.79390074 30.70000000
      vertex -94.50000000 89.31351598 30.40000000
      vertex -94.50000000 88.88925191 30.57573593
    endloop
  endfacet 14
  facet normal -1.00000000 0.00000000 0.00000000
    outer loop
      vertex -94.50000000 88.79390074 30.70000000
      vertex -94.50000000 88.73396049 30.84470857
      vertex -94.50000000 89.31351598 30.40000000
    endloop
  endfacet 14
  facet normal -1.00000000 0.00000000 0.00000000
    outer loop
      vertex -94.50000000 89.31351598 30.40000000
      vertex -94.50000000 88.73396049 30.84470857
      vertex -94.50000000 88.71351598 31.00000000
    endloop
  endfacet 14
  facet normal -1.00000000 0.00000000 -0.00000000
    outer loop
      vertex -94.50000000 88.73396049 31.15529143
      vertex -94.50000000 89.31351598 30.40000000
      vertex -94.50000000 88.71351598 31.00000000
    endloop
  endfacet 14
  facet normal -1.00000000 0.00000000 0.00000000
    outer loop
      vertex -94.50000000 88.73396049 31.15529143
      vertex -94.50000000 88.79390074 31.30000000
      vertex -94.50000000 89.31351598 30.40000000
    endloop
  endfacet 14
  facet normal -1.00000000 0.00000000 0.00000000
    outer loop
      vertex -94.50000000 89.31351598 30.40000000
      vertex -94.50000000 88.79390074 31.30000000
      vertex -94.50000000 88.88925191 31.42426407
    endloop
  endfacet 14
  facet normal -1.00000000 0.00000000 -0.00000000
    outer loop
      vertex -94.50000000 89.01351598 31.51961524
      vertex -94.50000000 89.31351598 30.40000000
      vertex -94.50000000 88.88925191 31.42426407
    endloop
  endfacet 14
  facet normal -1.00000000 0.00000000 0.00000000
    outer loop
      vertex -94.50000000 89.01351598 31.51961524
      vertex -94.50000000 89.15822456 31.57955550
      vertex -94.50000000 89.31351598 30.40000000
    endloop
  endfacet 14
  facet normal -1.00000000 0.00000000 0.00000000
    outer loop
      vertex -94.50000000 89.31351598 30.40000000
      vertex -94.50000000 89.15822456 31.57955550
      vertex -94.50000000 89.31351598 31.60000000
    endloop
  endfacet 14
  facet normal -0.00000000 0.13052619 0.99144486
    outer loop
      vertex -85.50000000 100.71351598 31.60000000
      vertex -74.50000000 100.71351598 31.60000000
      vertex -85.50000000 100.86880741 31.57955550
    endloop
  endfacet 15
  facet normal 0.00000000 0.13052619 0.99144486
    outer loop
      vertex -85.50000000 100.86880741 31.57955550
      vertex -74.50000000 100.71351598 31.60000000
      vertex -74.50000000 100.86880741 31.57955550
    endloop
  endfacet 15
  facet normal -0.00000000 0.38268343 0.92387953
    outer loop
      vertex -85.50000000 101.01351598 31.51961524
      vertex -74.50000000 100.86880741 31.57955550
      vertex -74.50000000 101.01351598 31.51961524
    endloop
  endfacet 15
  facet normal 0.00000000 0.60876143 0.79335334
    outer loop
      vertex -85.50000000 101.13778005 31.42426407
      vertex -74.50000000 101.01351598 31.51961524
      vertex -74.50000000 101.13778005 31.42426407
    endloop
  endfacet 15
  facet normal 0.00000000 0.79335334 0.60876143
    outer loop
      vertex -85.50000000 101.23313122 31.30000000
      vertex -74.50000000 101.13778005 31.42426407
      vertex -74.50000000 101.23313122 31.30000000
    endloop
  endfacet 15
  facet normal -0.00000000 0.92387953 0.38268343
    outer loop
      vertex -85.50000000 101.29307148 31.15529143
      vertex -74.50000000 101.23313122 31.30000000
      vertex -74.50000000 101.29307148 31.15529143
    endloop
  endfacet 15
  facet normal -0.00000000 0.99144486 0.13052619
    outer loop
      vertex -85.50000000 101.31351598 31.00000000
      vertex -74.50000000 101.29307148 31.15529143
      vertex -74.50000000 101.31351598 31.00000000
    endloop
  endfacet 15
  facet normal 0.00000000 0.99144486 -0.13052619
    outer loop
      vertex -85.50000000 101.29307148 30.84470857
      vertex -74.50000000 101.31351598 31.00000000
      vertex -74.50000000 101.29307148 30.84470857
    endloop
  endfacet 15
  facet normal 0.00000000 0.92387953 -0.38268343
    outer loop
      vertex -85.50000000 101.23313122 30.70000000
      vertex -74.50000000 101.29307148 30.84470857
      vertex -74.50000000 101.23313122 30.70000000
    endloop
  endfacet 15
  facet normal 0.00000000 0.79335334 -0.60876143
    outer loop
      vertex -85.50000000 101.13778005 30.57573593
      vertex -74.50000000 101.23313122 30.70000000
      vertex -74.50000000 101.13778005 30.57573593
    endloop
  endfacet 15
  facet normal 0.00000000 0.60876143 -0.79335334
    outer loop
      vertex -85.50000000 101.01351598 30.48038476
      vertex -74.50000000 101.13778005 30.57573593
      vertex -74.50000000 101.01351598 30.48038476
    endloop
  endfacet 15
  facet normal -0.00000000 0.38268343 -0.92387953
    outer loop
      vertex -85.50000000 100.86880741 30.42044450
      vertex -74.50000000 101.01351598 30.48038476
      vertex -74.50000000 100.86880741 30.42044450
    endloop
  endfacet 15
  facet normal -0.00000000 0.13052619 -0.99144486
    outer loop
      vertex -85.50000000 100.71351598 30.40000000
      vertex -74.50000000 100.86880741 30.42044450
      vertex -74.50000000 100.71351598 30.40000000
    endloop
  endfacet 15
  facet normal 0.00000000 0.13052619 -0.99144486
    outer loop
      vertex -85.50000000 100.71351598 30.40000000
      vertex -85.50000000 100.86880741 30.42044450
      vertex -74.50000000 100.86880741 30.42044450
    endloop
  endfacet 15
  facet normal 0.00000000 0.38268343 -0.92387953
    outer loop
      vertex -85.50000000 100.86880741 30.42044450
      vertex -85.50000000 101.01351598 30.48038476
      vertex -74.50000000 101.01351598 30.48038476
    endloop
  endfacet 15
  facet normal 0.00000000 0.60876143 -0.79335334
    outer loop
      vertex -85.50000000 101.01351598 30.48038476
      vertex -85.50000000 101.13778005 30.57573593
      vertex -74.50000000 101.13778005 30.57573593
    endloop
  endfacet 15
  facet normal 0.00000000 0.79335334 -0.60876143
    outer loop
      vertex -85.50000000 101.13778005 30.57573593
      vertex -85.50000000 101.23313122 30.70000000
      vertex -74.50000000 101.23313122 30.70000000
    endloop
  endfacet 15
  facet normal 0.00000000 0.92387953 -0.38268343
    outer loop
      vertex -85.50000000 101.23313122 30.70000000
      vertex -85.50000000 101.29307148 30.84470857
      vertex -74.50000000 101.29307148 30.84470857
    endloop
  endfacet 15
  facet normal -0.00000000 0.99144486 -0.13052619
    outer loop
      vertex -85.50000000 101.29307148 30.84470857
      vertex -85.50000000 101.31351598 31.00000000
      vertex -74.50000000 101.31351598 31.00000000
    endloop
  endfacet 15
  facet normal -0.00000000 0.99144486 0.13052619
    outer loop
      vertex -85.50000000 101.31351598 31.00000000
      vertex -85.50000000 101.29307148 31.15529143
      vertex -74.50000000 101.29307148 31.15529143
    endloop
  endfacet 15
  facet normal 0.00000000 0.92387953 0.38268343
    outer loop
      vertex -85.50000000 101.29307148 31.15529143
      vertex -85.50000000 101.23313122 31.30000000
      vertex -74.50000000 101.23313122 31.30000000
    endloop
  endfacet 15
  facet normal 0.00000000 0.79335334 0.60876143
    outer loop
      vertex -85.50000000 101.23313122 31.30000000
      vertex -85.50000000 101.13778005 31.42426407
      vertex -74.50000000 101.13778005 31.42426407
    endloop
  endfacet 15
  facet normal -0.00000000 0.60876143 0.79335334
    outer loop
      vertex -85.50000000 101.13778005 31.42426407
      vertex -85.50000000 101.01351598 31.51961524
      vertex -74.50000000 101.01351598 31.51961524
    endloop
  endfacet 15
  facet normal 0.00000000 0.38268343 0.92387953
    outer loop
      vertex -85.50000000 101.01351598 31.51961524
      vertex -85.50000000 100.86880741 31.57955550
      vertex -74.50000000 100.86880741 31.57955550
    endloop
  endfacet 15
  facet normal 1.00000000 0.00000000 0.00000000
    outer loop
      vertex -74.50000000 100.71351598 31.60000000
      vertex -74.50000000 100.71351598 30.40000000
      vertex -74.50000000 100.86880741 31.57955550
    endloop
  endfacet 16
  facet normal 1.00000000 0.00000000 0.00000000
    outer loop
      vertex -74.50000000 100.86880741 31.57955550
      vertex -74.50000000 100.71351598 30.40000000
      vertex -74.50000000 100.86880741 30.42044450
    endloop
  endfacet 16
  facet normal 1.00000000 0.00000000 0.00000000
    outer loop
      vertex -74.50000000 101.01351598 31.51961524
      vertex -74.50000000 100.86880741 30.42044450
      vertex -74.50000000 101.01351598 30.48038476
    endloop
  endfacet 16
  facet normal 1.00000000 0.00000000 0.00000000
    outer loop
      vertex -74.50000000 101.13778005 31.42426407
      vertex -74.50000000 101.01351598 30.48038476
      vertex -74.50000000 101.13778005 30.57573593
    endloop
  endfacet 16
  facet normal 1.00000000 0.00000000 0.00000000
    outer loop
      vertex -74.50000000 101.23313122 31.30000000
      vertex -74.50000000 101.13778005 30.57573593
      vertex -74.50000000 101.23313122 30.70000000
    endloop
  endfacet 16
  facet normal 1.00000000 0.00000000 0.00000000
    outer loop
      vertex -74.50000000 101.29307148 31.15529143
      vertex -74.50000000 101.23313122 30.70000000
      vertex -74.50000000 101.29307148 30.84470857
    endloop
  endfacet 16
  facet normal 1.00000000 0.00000000 0.00000000
    outer loop
      vertex -74.50000000 101.31351598 31.00000000
      vertex -74.50000000 101.29307148 31.15529143
      vertex -74.50000000 101.29307148 30.84470857
    endloop
  endfacet 16
  facet normal 1.00000000 0.00000000 0.00000000
    outer loop
      vertex -74.50000000 101.29307148 31.15529143
      vertex -74.50000000 101.23313122 31.30000000
      vertex -74.50000000 101.23313122 30.70000000
    endloop
  endfacet 16
  facet normal 1.00000000 0.00000000 0.00000000
    outer loop
      vertex -74.50000000 101.23313122 31.30000000
      vertex -74.50000000 101.13778005 31.42426407
      vertex -74.50000000 101.13778005 30.57573593
    endloop
  endfacet 16
  facet normal 1.00000000 0.00000000 0.00000000
    outer loop
      vertex -74.50000000 101.13778005 31.42426407
      vertex -74.50000000 101.01351598 31.51961524
      vertex -74.50000000 101.01351598 30.48038476
    endloop
  endfacet 16
  facet normal 1.00000000 0.00000000 0.00000000
    outer loop
      vertex -74.50000000 101.01351598 31.51961524
      vertex -74.50000000 100.86880741 31.57955550
      vertex -74.50000000 100.86880741 30.42044450
    endloop
  endfacet 16
  facet normal -1.00000000 0.00000000 0.00000000
    outer loop
      vertex -85.50000000 100.71351598 30.40000000
      vertex -85.50000000 100.71351598 31.60000000
      vertex -85.50000000 100.86880741 30.42044450
    endloop
  endfacet 17
  facet normal -1.00000000 0.00000000 0.00000000
    outer loop
      vertex -85.50000000 100.86880741 30.42044450
      vertex -85.50000000 100.71351598 31.60000000
      vertex -85.50000000 100.86880741 31.57955550
    endloop
  endfacet 17
  facet normal -1.00000000 0.00000000 0.00000000
    outer loop
      vertex -85.50000000 101.01351598 30.48038476
      vertex -85.50000000 100.86880741 31.57955550
      vertex -85.50000000 101.01351598 31.51961524
    endloop
  endfacet 17
  facet normal -1.00000000 0.00000000 0.00000000
    outer loop
      vertex -85.50000000 101.13778005 30.57573593
      vertex -85.50000000 101.01351598 31.51961524
      vertex -85.50000000 101.13778005 31.42426407
    endloop
  endfacet 17
  facet normal -1.00000000 0.00000000 0.00000000
    outer loop
      vertex -85.50000000 101.23313122 30.70000000
      vertex -85.50000000 101.13778005 31.42426407
      vertex -85.50000000 101.23313122 31.30000000
    endloop
  endfacet 17
  facet normal -1.00000000 0.00000000 0.00000000
    outer loop
      vertex -85.50000000 101.29307148 30.84470857
      vertex -85.50000000 101.23313122 31.30000000
      vertex -85.50000000 101.29307148 31.15529143
    endloop
  endfacet 17
  facet normal -1.00000000 -0.00000000 0.00000000
    outer loop
      vertex -85.50000000 101.31351598 31.00000000
      vertex -85.50000000 101.29307148 30.84470857
      vertex -85.50000000 101.29307148 31.15529143
    endloop
  endfacet 17
  facet normal -1.00000000 -0.00000000 0.00000000
    outer loop
      vertex -85.50000000 101.29307148 30.84470857
      vertex -85.50000000 101.23313122 30.70000000
      vertex -85.50000000 101.23313122 31.30000000
    endloop
  endfacet 17
  facet normal -1.00000000 -0.00000000 0.00000000
    outer loop
      vertex -85.50000000 101.23313122 30.70000000
      vertex -85.50000000 101.13778005 30.57573593
      vertex -85.50000000 101.13778005 31.42426407
    endloop
  endfacet 17
  facet normal -1.00000000 -0.00000000 0.00000000
    outer loop
      vertex -85.50000000 101.13778005 30.57573593
      vertex -85.50000000 101.01351598 30.48038476
      vertex -85.50000000 101.01351598 31.51961524
    endloop
  endfacet 17
  facet normal -1.00000000 -0.00000000 0.00000000
    outer loop
      vertex -85.50000000 101.01351598 30.48038476
      vertex -85.50000000 100.86880741 30.42044450
      vertex -85.50000000 100.86880741 31.57955550
    endloop
  endfacet 17
  facet normal 0.00000000 1.00000000 -0.00000000
    outer loop
      vertex -86.90000000 91.71351598 30.50000000
      vertex -95.40000000 91.71351598 30.50000000
      vertex -86.90000000 91.71351598 31.50000000
    endloop
  endfacet 18
  facet normal 0.00000000 1.00000000 0.00000000
    outer loop
      vertex -86.90000000 91.71351598 31.50000000
      vertex -95.40000000 91.71351598 30.50000000
      vertex -95.40000000 91.71351598 31.50000000
    endloop
  endfacet 18
  facet normal -1.00000000 0.00000000 0.00000000
    outer loop
      vertex -86.90000000 95.71351598 30.50000000
      vertex -86.90000000 91.71351598 30.50000000
      vertex -86.90000000 95.71351598 31.50000000
    endloop
  endfacet 19
  facet normal -1.00000000 -0.00000000 0.00000000
    outer loop
      vertex -86.90000000 95.71351598 31.50000000
      vertex -86.90000000 91.71351598 30.50000000
      vertex -86.90000000 91.71351598 31.50000000
    endloop
  endfacet 19
  facet normal 0.00000000 -1.00000000 0.00000000
    outer loop
      vertex -94.50000000 89.31351598 30.40000000
      vertex -94.50000000 89.31351598 31.60000000
      vertex -95.50000000 89.31351598 32.00000000
    endloop
  endfacet 20
  facet normal 0.00000000 -1.00000000 0.00000000
    outer loop
      vertex -95.50000000 89.31351598 30.00000000
      vertex -94.50000000 89.31351598 30.40000000
      vertex -95.50000000 89.31351598 32.00000000
    endloop
  endfacet 20
  facet normal 0.00000000 -1.00000000 -0.00000000
    outer loop
      vertex -95.50000000 89.31351598 30.00000000
      vertex -64.50000000 89.31351598 30.00000000
      vertex -94.50000000 89.31351598 30.40000000
    endloop
  endfacet 20
  facet normal 0.00000000 -1.00000000 0.00000000
    outer loop
      vertex -94.50000000 89.31351598 30.40000000
      vertex -64.50000000 89.31351598 30.00000000
      vertex -65.50000000 89.31351598 30.40000000
    endloop
  endfacet 20
  facet normal 0.00000000 -1.00000000 0.00000000
    outer loop
      vertex -65.50000000 89.31351598 30.40000000
      vertex -64.50000000 89.31351598 30.00000000
      vertex -64.50000000 89.31351598 32.00000000
    endloop
  endfacet 20
  facet normal 0.00000000 -1.00000000 -0.00000000
    outer loop
      vertex -65.50000000 89.31351598 31.60000000
      vertex -64.50000000 89.31351598 32.00000000
      vertex -95.50000000 89.31351598 32.00000000
    endloop
  endfacet 20
  facet normal 0.00000000 -1.00000000 0.00000000
    outer loop
      vertex -94.50000000 89.31351598 31.60000000
      vertex -65.50000000 89.31351598 31.60000000
      vertex -95.50000000 89.31351598 32.00000000
    endloop
  endfacet 20
  facet normal 0.00000000 -1.00000000 0.00000000
    outer loop
      vertex -65.50000000 89.31351598 31.60000000
      vertex -65.50000000 89.31351598 30.40000000
      vertex -64.50000000 89.31351598 32.00000000
    endloop
  endfacet 20
  facet normal 0.13052619 -0.99144486 0.00000000
    outer loop
      vertex -64.50000000 89.31351598 32.00000000
      vertex -64.50000000 89.31351598 30.00000000
      vertex -64.31882667 89.33736790 32.00000000
    endloop
  endfacet 21
  facet normal 0.13052619 -0.99144486 0.00000000
    outer loop
      vertex -64.31882667 89.33736790 32.00000000
      vertex -64.50000000 89.31351598 30.00000000
      vertex -64.31882667 89.33736790 30.00000000
    endloop
  endfacet 21
  facet normal 0.38268343 -0.92387953 0.00000000
    outer loop
      vertex -64.15000000 89.40729820 32.00000000
      vertex -64.31882667 89.33736790 30.00000000
      vertex -64.15000000 89.40729820 30.00000000
    endloop
  endfacet 21
  facet normal 0.60876143 -0.79335334 0.00000000
    outer loop
      vertex -64.00502525 89.51854124 32.00000000
      vertex -64.15000000 89.40729820 30.00000000
      vertex -64.00502525 89.51854124 30.00000000
    endloop
  endfacet 21
  facet normal 0.79335334 -0.60876143 0.00000000
    outer loop
      vertex -63.89378222 89.66351598 32.00000000
      vertex -64.00502525 89.51854124 30.00000000
      vertex -63.89378222 89.66351598 30.00000000
    endloop
  endfacet 21
  facet normal 0.92387953 -0.38268343 0.00000000
    outer loop
      vertex -63.82385192 89.83234265 32.00000000
      vertex -63.89378222 89.66351598 30.00000000
      vertex -63.82385192 89.83234265 30.00000000
    endloop
  endfacet 21
  facet normal 0.99144486 -0.13052619 0.00000000
    outer loop
      vertex -63.80000000 90.01351598 32.00000000
      vertex -63.82385192 89.83234265 30.00000000
      vertex -63.80000000 90.01351598 30.00000000
    endloop
  endfacet 21
  facet normal 0.99144486 -0.13052619 0.00000000
    outer loop
      vertex -63.80000000 90.01351598 32.00000000
      vertex -63.82385192 89.83234265 32.00000000
      vertex -63.82385192 89.83234265 30.00000000
    endloop
  endfacet 21
  facet normal 0.92387953 -0.38268343 -0.00000000
    outer loop
      vertex -63.82385192 89.83234265 32.00000000
      vertex -63.89378222 89.66351598 32.00000000
      vertex -63.89378222 89.66351598 30.00000000
    endloop
  endfacet 21
  facet normal 0.79335334 -0.60876143 0.00000000
    outer loop
      vertex -63.89378222 89.66351598 32.00000000
      vertex -64.00502525 89.51854124 32.00000000
      vertex -64.00502525 89.51854124 30.00000000
    endloop
  endfacet 21
  facet normal 0.60876143 -0.79335334 0.00000000
    outer loop
      vertex -64.00502525 89.51854124 32.00000000
      vertex -64.15000000 89.40729820 32.00000000
      vertex -64.15000000 89.40729820 30.00000000
    endloop
  endfacet 21
  facet normal 0.38268343 -0.92387953 0.00000000
    outer loop
      vertex -64.15000000 89.40729820 32.00000000
      vertex -64.31882667 89.33736790 32.00000000
      vertex -64.31882667 89.33736790 30.00000000
    endloop
  endfacet 21
  facet normal 1.00000000 -0.00000000 0.00000000
    outer loop
      vertex -63.80000000 90.01351598 30.00000000
      vertex -63.80000000 100.01351598 30.00000000
      vertex -63.80000000 90.01351598 32.00000000
    endloop
  endfacet 22
  facet normal 1.00000000 -0.00000000 0.00000000
    outer loop
      vertex -63.80000000 90.01351598 32.00000000
      vertex -63.80000000 100.01351598 30.00000000
      vertex -63.80000000 100.01351598 32.00000000
    endloop
  endfacet 22
  facet normal 0.99144486 0.13052619 0.00000000
    outer loop
      vertex -63.80000000 100.01351598 32.00000000
      vertex -63.80000000 100.01351598 30.00000000
      vertex -63.82385192 100.19468931 32.00000000
    endloop
  endfacet 23
  facet normal 0.99144486 0.13052619 0.00000000
    outer loop
      vertex -63.82385192 100.19468931 32.00000000
      vertex -63.80000000 100.01351598 30.00000000
      vertex -63.82385192 100.19468931 30.00000000
    endloop
  endfacet 23
  facet normal 0.92387953 0.38268343 0.00000000
    outer loop
      vertex -63.89378222 100.36351598 32.00000000
      vertex -63.82385192 100.19468931 30.00000000
      vertex -63.89378222 100.36351598 30.00000000
    endloop
  endfacet 23
  facet normal 0.79335334 0.60876143 0.00000000
    outer loop
      vertex -64.00502525 100.50849073 32.00000000
      vertex -63.89378222 100.36351598 30.00000000
      vertex -64.00502525 100.50849073 30.00000000
    endloop
  endfacet 23
  facet normal 0.60876143 0.79335334 0.00000000
    outer loop
      vertex -64.15000000 100.61973376 32.00000000
      vertex -64.00502525 100.50849073 30.00000000
      vertex -64.15000000 100.61973376 30.00000000
    endloop
  endfacet 23
  facet normal 0.38268343 0.92387953 0.00000000
    outer loop
      vertex -64.31882667 100.68966406 32.00000000
      vertex -64.15000000 100.61973376 30.00000000
      vertex -64.31882667 100.68966406 30.00000000
    endloop
  endfacet 23
  facet normal 0.13052619 0.99144486 0.00000000
    outer loop
      vertex -64.50000000 100.71351598 32.00000000
      vertex -64.31882667 100.68966406 30.00000000
      vertex -64.50000000 100.71351598 30.00000000
    endloop
  endfacet 23
  facet normal 0.13052619 0.99144486 0.00000000
    outer loop
      vertex -64.50000000 100.71351598 32.00000000
      vertex -64.31882667 100.68966406 32.00000000
      vertex -64.31882667 100.68966406 30.00000000
    endloop
  endfacet 23
  facet normal 0.38268343 0.92387953 0.00000000
    outer loop
      vertex -64.31882667 100.68966406 32.00000000
      vertex -64.15000000 100.61973376 32.00000000
      vertex -64.15000000 100.61973376 30.00000000
    endloop
  endfacet 23
  facet normal 0.60876143 0.79335334 0.00000000
    outer loop
      vertex -64.15000000 100.61973376 32.00000000
      vertex -64.00502525 100.50849073 32.00000000
      vertex -64.00502525 100.50849073 30.00000000
    endloop
  endfacet 23
  facet normal 0.79335334 0.60876143 0.00000000
    outer loop
      vertex -64.00502525 100.50849073 32.00000000
      vertex -63.89378222 100.36351598 32.00000000
      vertex -63.89378222 100.36351598 30.00000000
    endloop
  endfacet 23
  facet normal 0.92387953 0.38268343 0.00000000
    outer loop
      vertex -63.89378222 100.36351598 32.00000000
      vertex -63.82385192 100.19468931 32.00000000
      vertex -63.82385192 100.19468931 30.00000000
    endloop
  endfacet 23
  facet normal 0.00000000 1.00000000 0.00000000
    outer loop
      vertex -74.50000000 100.71351598 30.40000000
      vertex -74.50000000 100.71351598 31.60000000
      vertex -64.50000000 100.71351598 32.00000000
    endloop
  endfacet 24
  facet normal 0.00000000 1.00000000 -0.00000000
    outer loop
      vertex -64.50000000 100.71351598 30.00000000
      vertex -74.50000000 100.71351598 30.40000000
      vertex -64.50000000 100.71351598 32.00000000
    endloop
  endfacet 24
  facet normal -0.00000000 1.00000000 -0.00000000
    outer loop
      vertex -64.50000000 100.71351598 30.00000000
      vertex -95.50000000 100.71351598 30.00000000
      vertex -74.50000000 100.71351598 30.40000000
    endloop
  endfacet 24
  facet normal -0.00000000 1.00000000 0.00000000
    outer loop
      vertex -74.50000000 100.71351598 30.40000000
      vertex -95.50000000 100.71351598 30.00000000
      vertex -85.50000000 100.71351598 30.40000000
    endloop
  endfacet 24
  facet normal 0.00000000 1.00000000 0.00000000
    outer loop
      vertex -85.50000000 100.71351598 30.40000000
      vertex -95.50000000 100.71351598 30.00000000
      vertex -95.50000000 100.71351598 32.00000000
    endloop
  endfacet 24
  facet normal -0.00000000 1.00000000 -0.00000000
    outer loop
      vertex -85.50000000 100.71351598 31.60000000
      vertex -95.50000000 100.71351598 32.00000000
      vertex -64.50000000 100.71351598 32.00000000
    endloop
  endfacet 24
  facet normal -0.00000000 1.00000000 0.00000000
    outer loop
      vertex -74.50000000 100.71351598 31.60000000
      vertex -85.50000000 100.71351598 31.60000000
      vertex -64.50000000 100.71351598 32.00000000
    endloop
  endfacet 24
  facet normal 0.00000000 1.00000000 0.00000000
    outer loop
      vertex -85.50000000 100.71351598 31.60000000
      vertex -85.50000000 100.71351598 30.40000000
      vertex -95.50000000 100.71351598 32.00000000
    endloop
  endfacet 24
  facet normal -0.13052619 0.99144486 0.00000000
    outer loop
      vertex -95.50000000 100.71351598 32.00000000
      vertex -95.50000000 100.71351598 30.00000000
      vertex -95.68117333 100.68966406 32.00000000
    endloop
  endfacet 25
  facet normal -0.13052619 0.99144486 0.00000000
    outer loop
      vertex -95.68117333 100.68966406 32.00000000
      vertex -95.50000000 100.71351598 30.00000000
      vertex -95.68117333 100.68966406 30.00000000
    endloop
  endfacet 25
  facet normal -0.38268343 0.92387953 0.00000000
    outer loop
      vertex -95.85000000 100.61973376 32.00000000
      vertex -95.68117333 100.68966406 30.00000000
      vertex -95.85000000 100.61973376 30.00000000
    endloop
  endfacet 25
  facet normal -0.60876143 0.79335334 0.00000000
    outer loop
      vertex -95.99497475 100.50849073 32.00000000
      vertex -95.85000000 100.61973376 30.00000000
      vertex -95.99497475 100.50849073 30.00000000
    endloop
  endfacet 25
  facet normal -0.79335334 0.60876143 0.00000000
    outer loop
      vertex -96.10621778 100.36351598 32.00000000
      vertex -95.99497475 100.50849073 30.00000000
      vertex -96.10621778 100.36351598 30.00000000
    endloop
  endfacet 25
  facet normal -0.92387953 0.38268343 0.00000000
    outer loop
      vertex -96.17614808 100.19468931 32.00000000
      vertex -96.10621778 100.36351598 30.00000000
      vertex -96.17614808 100.19468931 30.00000000
    endloop
  endfacet 25
  facet normal -0.99144486 0.13052619 0.00000000
    outer loop
      vertex -96.20000000 100.01351598 32.00000000
      vertex -96.17614808 100.19468931 30.00000000
      vertex -96.20000000 100.01351598 30.00000000
    endloop
  endfacet 25
  facet normal -0.99144486 0.13052619 0.00000000
    outer loop
      vertex -96.20000000 100.01351598 32.00000000
      vertex -96.17614808 100.19468931 32.00000000
      vertex -96.17614808 100.19468931 30.00000000
    endloop
  endfacet 25
  facet normal -0.92387953 0.38268343 0.00000000
    outer loop
      vertex -96.17614808 100.19468931 32.00000000
      vertex -96.10621778 100.36351598 32.00000000
      vertex -96.10621778 100.36351598 30.00000000
    endloop
  endfacet 25
  facet normal -0.79335334 0.60876143 0.00000000
    outer loop
      vertex -96.10621778 100.36351598 32.00000000
      vertex -95.99497475 100.50849073 32.00000000
      vertex -95.99497475 100.50849073 30.00000000
    endloop
  endfacet 25
  facet normal -0.60876143 0.79335334 0.00000000
    outer loop
      vertex -95.99497475 100.50849073 32.00000000
      vertex -95.85000000 100.61973376 32.00000000
      vertex -95.85000000 100.61973376 30.00000000
    endloop
  endfacet 25
  facet normal -0.38268343 0.92387953 0.00000000
    outer loop
      vertex -95.85000000 100.61973376 32.00000000
      vertex -95.68117333 100.68966406 32.00000000
      vertex -95.68117333 100.68966406 30.00000000
    endloop
  endfacet 25
  facet normal -1.00000000 0.00000000 0.00000000
    outer loop
      vertex -96.20000000 100.01351598 30.00000000
      vertex -96.20000000 90.01351598 30.00000000
      vertex -96.20000000 100.01351598 32.00000000
    endloop
  endfacet 26
  facet normal -1.00000000 -0.00000000 0.00000000
    outer loop
      vertex -96.20000000 100.01351598 32.00000000
      vertex -96.20000000 90.01351598 30.00000000
      vertex -96.20000000 90.01351598 32.00000000
    endloop
  endfacet 26
  facet normal -0.99144486 -0.13052619 -0.00000000
    outer loop
      vertex -96.20000000 90.01351598 32.00000000
      vertex -96.20000000 90.01351598 30.00000000
      vertex -96.17614808 89.83234265 32.00000000
    endloop
  endfacet 27
  facet normal -0.99144486 -0.13052619 -0.00000000
    outer loop
      vertex -96.17614808 89.83234265 32.00000000
      vertex -96.20000000 90.01351598 30.00000000
      vertex -96.17614808 89.83234265 30.00000000
    endloop
  endfacet 27
  facet normal -0.92387953 -0.38268343 -0.00000000
    outer loop
      vertex -96.10621778 89.66351598 32.00000000
      vertex -96.17614808 89.83234265 30.00000000
      vertex -96.10621778 89.66351598 30.00000000
    endloop
  endfacet 27
  facet normal -0.79335334 -0.60876143 -0.00000000
    outer loop
      vertex -95.99497475 89.51854124 32.00000000
      vertex -96.10621778 89.66351598 30.00000000
      vertex -95.99497475 89.51854124 30.00000000
    endloop
  endfacet 27
  facet normal -0.60876143 -0.79335334 -0.00000000
    outer loop
      vertex -95.85000000 89.40729820 32.00000000
      vertex -95.99497475 89.51854124 30.00000000
      vertex -95.85000000 89.40729820 30.00000000
    endloop
  endfacet 27
  facet normal -0.38268343 -0.92387953 -0.00000000
    outer loop
      vertex -95.68117333 89.33736790 32.00000000
      vertex -95.85000000 89.40729820 30.00000000
      vertex -95.68117333 89.33736790 30.00000000
    endloop
  endfacet 27
  facet normal -0.13052619 -0.99144486 -0.00000000
    outer loop
      vertex -95.50000000 89.31351598 32.00000000
      vertex -95.68117333 89.33736790 30.00000000
      vertex -95.50000000 89.31351598 30.00000000
    endloop
  endfacet 27
  facet normal -0.13052619 -0.99144486 0.00000000
    outer loop
      vertex -95.50000000 89.31351598 32.00000000
      vertex -95.68117333 89.33736790 32.00000000
      vertex -95.68117333 89.33736790 30.00000000
    endloop
  endfacet 27
  facet normal -0.38268343 -0.92387953 0.00000000
    outer loop
      vertex -95.68117333 89.33736790 32.00000000
      vertex -95.85000000 89.40729820 32.00000000
      vertex -95.85000000 89.40729820 30.00000000
    endloop
  endfacet 27
  facet normal -0.60876143 -0.79335334 0.00000000
    outer loop
      vertex -95.85000000 89.40729820 32.00000000
      vertex -95.99497475 89.51854124 32.00000000
      vertex -95.99497475 89.51854124 30.00000000
    endloop
  endfacet 27
  facet normal -0.79335334 -0.60876143 0.00000000
    outer loop
      vertex -95.99497475 89.51854124 32.00000000
      vertex -96.10621778 89.66351598 32.00000000
      vertex -96.10621778 89.66351598 30.00000000
    endloop
  endfacet 27
  facet normal -0.92387953 -0.38268343 0.00000000
    outer loop
      vertex -96.10621778 89.66351598 32.00000000
      vertex -96.17614808 89.83234265 32.00000000
      vertex -96.17614808 89.83234265 30.00000000
    endloop
  endfacet 27
endsolid box-steuerung-deckel
